<?xml version="1.0" encoding="utf-8"?>
<!-- Generator: Adobe Illustrator 27.9.0, SVG Export Plug-In . SVG Version: 6.00 Build 0)  -->
<svg version="1.1" id="Layer_1" xmlns="http://www.w3.org/2000/svg" xmlns:xlink="http://www.w3.org/1999/xlink" x="0px" y="0px"
	 viewBox="0 0 1080 527" style="enable-background:new 0 0 1080 527;" xml:space="preserve">
<style type="text/css">
	.st0{fill:#FFFFFF;}
</style>
<path class="st0" d="M87.9,523.3H54.4C28.2,523.3,7,502.1,7,475.9V3.1h33.5c26.2,0,47.4,21.2,47.4,47.4V523.3z"/>
<path class="st0" d="M177.4,523.3H96.5V286.9c0-13.1,10.6-23.7,23.7-23.7h33.5c13.1,0,23.7,10.6,23.7,23.7V523.3z"/>
<path class="st0" d="M219.6,523.3h-33.5V50.5c0-26.2,21.2-47.4,47.4-47.4H267v472.8C267,502,245.8,523.3,219.6,523.3z"/>
<path class="st0" d="M356.6,523.3h-33.5c-26.2,0-47.4-21.2-47.4-47.4V50.5c0-26.2,21.2-47.4,47.4-47.4h33.5V523.3z"/>
<path class="st0" d="M422.5,133.1H389c-13.1,0-23.7-10.6-23.7-23.7V3.1h80.9v106.3C446.2,122.5,435.6,133.1,422.5,133.1z"/>
<path class="st0" d="M446.2,263.2h-80.9v-52.9c0-13.1,10.6-23.7,23.7-23.7h33.5c13.1,0,23.7,10.6,23.7,23.7L446.2,263.2L446.2,263.2
	z"/>
<path class="st0" d="M488.4,523.3h-33.5V3.1h33.5c26.2,0,47.4,21.2,47.4,47.4v425.3C535.8,502,514.6,523.3,488.4,523.3z"/>
<path class="st0" d="M625.4,523.3h-33.5c-26.2,0-47.4-21.2-47.4-47.4V50.5c0-26.2,21.2-47.4,47.4-47.4h33.5V523.3z"/>
<path class="st0" d="M691.3,133.1h-33.5c-13.1,0-23.7-10.6-23.7-23.7V3.1H715v106.3C715,122.5,704.4,133.1,691.3,133.1z"/>
<path class="st0" d="M715,523.3h-80.9V416.9c0-13.1,10.6-23.7,23.7-23.7h33.5c13.1,0,23.7,10.6,23.7,23.7V523.3z"/>
<path class="st0" d="M757.1,523.3h-33.5V361.4h33.5c26.2,0,47.4,21.2,47.4,47.4v67C804.6,502,783.3,523.3,757.1,523.3z"/>
<path class="st0" d="M757.1,263.2h-33.5V3.1h33.5c26.2,0,47.4,21.2,47.4,47.4v165.2C804.6,241.9,783.3,263.2,757.1,263.2z"/>
<path class="st0" d="M846.7,523.3h-33.5V3.1h33.5c26.2,0,47.4,21.2,47.4,47.4v425.3C894.2,502,872.9,523.3,846.7,523.3z"/>
<path class="st0" d="M936.3,263.2h-33.5V115.5c0-26.2,21.2-47.4,47.4-47.4h33.5v147.6C983.7,241.9,962.5,263.2,936.3,263.2z"/>
<path class="st0" d="M983.7,458.2h-33.5c-26.2,0-47.4-21.2-47.4-47.4V263.2h33.5c26.2,0,47.4,21.2,47.4,47.4V458.2z"/>
<path class="st0" d="M1025.9,133.1h-33.5V50.5c0-26.2,21.2-47.4,47.4-47.4h33.5v82.6C1073.3,111.9,1052.1,133.1,1025.9,133.1z"/>
<path class="st0" d="M1073.3,523.3h-33.5c-26.2,0-47.4-21.2-47.4-47.4v-82.6h33.5c26.2,0,47.4,21.2,47.4,47.4V523.3z"/>
</svg>
